<svg width="50" height="60" viewBox="0 0 50 60" fill="none" xmlns="http://www.w3.org/2000/svg">
<g clip-path="url(#clip0_419_32367)">
<path fill-rule="evenodd" clip-rule="evenodd" d="M2.00201 58.0099L50 58.0099V60.0099L0.00200653 60.0099L0.00200653 -0.00991058L50 -0.00991058V1.99009L2.00201 1.99009L2.00201 58.0099Z" fill="black"/>
<path d="M24.2929 29.2929C23.9024 29.6834 23.9024 30.3166 24.2929 30.7071L30.6569 37.0711C31.0474 37.4616 31.6805 37.4616 32.0711 37.0711C32.4616 36.6805 32.4616 36.0474 32.0711 35.6569L26.4142 30L32.0711 24.3431C32.4616 23.9526 32.4616 23.3195 32.0711 22.9289C31.6805 22.5384 31.0474 22.5384 30.6569 22.9289L24.2929 29.2929ZM50 29L25 29V31L50 31V29Z" fill="black"/>
</g>
<defs>
<clipPath id="clip0_419_32367">
<rect width="50" height="60" fill="white" transform="matrix(-1 0 0 -1 50 60)"/>
</clipPath>
</defs>
</svg>
