<svg width="29" height="14" viewBox="0 0 29 14" fill="none" xmlns="http://www.w3.org/2000/svg">
<path d="M6.64 12.192C5.34933 12.192 4.21867 11.8347 3.248 11.12C2.288 10.3947 1.65333 9.424 1.344 8.208H0.496V7.376H1.184C1.16267 7.07733 1.152 6.84267 1.152 6.672C1.152 6.50133 1.16267 6.256 1.184 5.936H0.496V5.104H1.344C1.664 3.90933 2.304 2.95467 3.264 2.24C4.23467 1.51467 5.36 1.152 6.64 1.152C8.34667 1.152 9.696 1.856 10.688 3.264L9.568 3.888C9.25867 3.42933 8.84267 3.056 8.32 2.768C7.79733 2.48 7.23733 2.336 6.64 2.336C5.73333 2.336 4.93333 2.58667 4.24 3.088C3.54667 3.58933 3.056 4.26133 2.768 5.104H7.616V5.936H2.576C2.544 6.18133 2.528 6.42667 2.528 6.672C2.528 6.91733 2.544 7.152 2.576 7.376H7.616V8.208H2.768C3.04533 9.06133 3.53067 9.744 4.224 10.256C4.928 10.7573 5.73333 11.008 6.64 11.008C7.23733 11.008 7.79733 10.8693 8.32 10.592C8.84267 10.304 9.25867 9.92533 9.568 9.456L10.704 10.08C9.66933 11.488 8.31467 12.192 6.64 12.192Z" fill="black"/>
<path d="M19 6L22 9.02254L25 6" stroke="black"/>
</svg>
