<svg width="28" height="27" viewBox="0 0 28 27" fill="none" xmlns="http://www.w3.org/2000/svg">
<path fill-rule="evenodd" clip-rule="evenodd" d="M13.7928 -0.00398395C11.1325 -0.041984 8.45048 0.700433 6.11265 2.26353C0.768977 5.83663 -1.31795 12.7222 1.14149 18.6639C3.6009 24.6055 9.93909 27.9948 16.2423 26.7401C22.5456 25.4854 27.1059 19.9253 27.1059 13.494H27.0999V11.994H15.1082V15.994H18.1061H21.104H22.9231C21.9947 19.4756 19.1678 22.223 15.4908 22.9549C10.9685 23.855 6.46782 21.4481 4.70332 17.1854C2.93881 12.9225 4.4198 8.03592 8.25359 5.47252C12.0874 2.90912 17.1645 3.41109 20.4248 6.67369L23.1534 3.94517C20.8812 1.67137 17.9548 0.358508 14.9306 0.0604081C14.5526 0.0234081 14.1728 0.00144329 13.7927 -0.00355671L13.7928 -0.00398395Z" fill="white"/>
<path fill-rule="evenodd" clip-rule="evenodd" d="M4.41813 16.4023L1.21527 18.8203C3.72161 24.6623 9.99566 27.9836 16.2419 26.7402C19.1292 26.1655 21.6428 24.6803 23.5279 22.629L20.5085 20.213C19.1859 21.573 17.4678 22.5616 15.4905 22.9552C10.9683 23.8553 6.46757 21.4482 4.70308 17.1855C4.59597 16.9268 4.5015 16.665 4.41813 16.4023Z" fill="white"/>
<path fill-rule="evenodd" clip-rule="evenodd" d="M2.61032 5.67188C-0.0118251 9.37488 -0.674495 14.2766 1.14149 18.6638C1.18306 18.7642 1.26948 18.9628 1.26948 18.9628C2.62249 18.1811 3.6218 17.4944 4.57326 16.8466C4.53029 16.7322 4.48612 16.6117 4.45728 16.5247C3.49197 13.6167 3.97693 10.4944 5.64005 8.05737C3.6218 6.49437 3.6218 6.49437 2.61032 5.67188Z" fill="white"/>
<path fill-rule="evenodd" clip-rule="evenodd" d="M15.108 11.9946V15.9946H18.1059H21.1038H22.9229C22.4937 17.604 21.6455 19.0444 20.5085 20.2135L23.5279 22.6295C25.7582 20.2025 27.1055 16.98 27.1055 13.4946H27.0995V11.9946H15.1078H15.108Z" fill="white"/>
</svg>
