<svg width="32" height="32" viewBox="0 0 32 32" fill="none" xmlns="http://www.w3.org/2000/svg">
<path d="M16.5002 17.6C13.0562 17.6 10.2002 14.744 10.2002 11.3C10.2002 7.856 13.0562 5 16.5002 5C19.9442 5 22.8002 7.856 22.8002 11.3C22.8002 14.744 19.9442 17.6 16.5002 17.6ZM16.5002 6.68C13.9802 6.68 11.8802 8.78 11.8802 11.3C11.8802 13.82 13.9802 15.92 16.5002 15.92C19.0202 15.92 21.1202 13.82 21.1202 11.3C21.1202 8.78 19.0202 6.68 16.5002 6.68Z" fill="black"/>
<path d="M27 26.4199H25.32C25.32 21.5479 21.372 17.5999 16.5 17.5999C11.628 17.5999 7.68 21.5479 7.68 26.4199H6C6 20.6239 10.704 15.9199 16.5 15.9199C22.296 15.9199 27 20.6239 27 26.4199Z" fill="black"/>
</svg>
