<svg width="41" height="26" viewBox="0 0 41 26" fill="none" xmlns="http://www.w3.org/2000/svg">
<path d="M25.0769 9.47887C24.9162 9.3436 24.6827 9.2749 24.3797 9.2749H22.8072L22.0811 12.8167H22.8107L23.0719 11.5362H23.9155C24.2545 11.5362 24.5503 11.4328 24.8001 11.2282C25.0485 11.0228 25.2085 10.7522 25.2786 10.4144C25.292 10.3535 25.3012 10.294 25.309 10.2352C25.3139 10.1765 25.3168 10.1212 25.3168 10.0731V10.0653C25.3168 9.81031 25.2368 9.61485 25.0769 9.47887ZM24.5581 10.316C24.5538 10.3429 24.5496 10.3726 24.5432 10.4045C24.505 10.5801 24.4357 10.709 24.3309 10.794C24.2262 10.8776 24.0811 10.9201 23.8985 10.9201H23.1993L23.4137 9.88184H24.0068C24.2021 9.88184 24.3415 9.90947 24.4314 9.96754C24.5199 10.0242 24.5645 10.1156 24.5645 10.2409C24.5645 10.2657 24.5609 10.2905 24.5581 10.316Z" fill="white"/>
<path d="M26.7966 10.8082L26.5425 10.9831C26.2771 10.7756 26.0351 10.6467 25.5672 10.8641C24.9303 11.1602 24.3973 13.4272 26.149 12.6807L26.2502 12.799L26.9417 12.8167L27.3947 10.7558L26.7966 10.8082ZM26.4045 11.935C26.2941 12.2629 26.0457 12.4789 25.8518 12.4173C25.6578 12.3578 25.5892 12.0419 25.7024 11.7133C25.8121 11.3847 26.062 11.1701 26.2538 11.231C26.4477 11.2912 26.517 11.6071 26.4045 11.935Z" fill="white"/>
<path d="M12.9616 9.14399L12.4591 11.5647C12.4152 11.7786 12.3168 11.9422 12.1661 12.0576C12.0153 12.1745 11.8214 12.2318 11.5857 12.2318C11.3798 12.2318 11.2326 12.173 11.142 12.0548C11.0797 11.9754 11.0493 11.8742 11.05 11.7502C11.0493 11.6943 11.0549 11.632 11.0705 11.564L11.5716 9.14329H10.8051L10.2977 11.5923C10.2729 11.7113 10.2609 11.8225 10.2609 11.9259C10.2609 12.1752 10.3338 12.382 10.4788 12.5441C10.6883 12.7729 11.0167 12.8862 11.4654 12.8862C11.9417 12.8862 12.331 12.7743 12.6318 12.5519C12.9361 12.3253 13.1328 12.0066 13.217 11.5916L13.7245 9.14258L12.9616 9.14399Z" fill="white"/>
<path d="M21.8199 10.7739C21.7165 10.6408 21.5524 10.5742 21.3252 10.5742C21.0747 10.5742 20.8602 10.6677 20.6847 10.8554L20.6083 10.9453L20.6699 10.6302H20.1278L19.6912 12.8164H20.2474L20.4979 11.5601C20.5291 11.4021 20.5942 11.2782 20.6925 11.189C20.7916 11.1004 20.9119 11.0558 21.0549 11.0558C21.1709 11.0558 21.2495 11.0891 21.2941 11.1564C21.3372 11.2229 21.3436 11.3271 21.316 11.4666L21.0464 12.8164H21.6033L21.9005 11.3271C21.9494 11.0912 21.9203 10.9071 21.8199 10.7739Z" fill="white"/>
<path d="M15.6132 10.7746C15.5106 10.6401 15.3464 10.5742 15.1185 10.5742C14.8672 10.5742 14.6542 10.6677 14.478 10.8554L14.4008 10.9453L14.4624 10.6302H13.9209L13.4843 12.8164H14.0413L14.2897 11.5608C14.3215 11.4028 14.3867 11.2789 14.485 11.1897C14.5834 11.1011 14.7037 11.0565 14.8467 11.0565C14.9635 11.0565 15.0442 11.0898 15.0859 11.1571C15.1291 11.2237 15.1369 11.3278 15.1093 11.4673L14.8396 12.8171H15.3966L15.6939 11.3278C15.742 11.0919 15.7144 10.9078 15.6132 10.7746Z" fill="white"/>
<path d="M26.6854 14.1609C26.604 14.1624 26.5665 14.1305 26.5701 14.0667L26.5411 13.8125H25.8525L25.8759 14.3684C25.8858 14.5292 25.9842 14.6022 26.1773 14.5915H26.6833L26.8071 14.1609H26.6854Z" fill="white"/>
<path d="M16.4343 10.6304L15.9651 12.8145H16.5638L17.0344 10.6304H16.4343Z" fill="white"/>
<path d="M19.084 14.099L19.2361 13.8306H18.5079L18.2361 14.2371C18.2057 14.3008 18.1413 14.3341 18.0443 14.3341H17.9396L17.8214 14.7633H18.3628C18.5404 14.7739 18.6876 14.6896 18.8072 14.5083H19.8462L19.9573 14.099H19.084Z" fill="white"/>
<path d="M24.9176 13.8447C24.6486 13.8447 24.2742 14.0317 24.2742 14.0317L24.3061 13.8447H23.5743L23.4299 14.3539H23.5708L22.8871 16.7583H22.747L22.6118 17.2364H24.0103L23.9508 17.4432H24.6592L24.7187 17.2364H24.8617L24.9961 16.7583H24.8532L25.5361 14.3539H25.6784L25.822 13.8447C25.822 13.8447 25.1872 13.8447 24.9176 13.8447ZM24.0839 16.7583H23.5375L23.6783 16.2647H24.2247L24.0839 16.7583ZM24.3563 15.8029C24.1143 15.8171 23.7604 15.9913 23.7604 15.9913L23.948 15.3093H24.4958C24.4958 15.3093 24.425 15.5395 24.3563 15.8029ZM24.6267 14.8476C24.3521 14.8823 24.0336 15.0048 24.0336 15.0048L24.2197 14.3539H24.7668C24.7668 14.3539 24.6868 14.6209 24.6267 14.8476Z" fill="white"/>
<path d="M29.2314 10.6294L28.6001 12.1067L28.564 10.6308H28.2265L27.8259 10.6365L28.017 12.9892C27.8563 13.3093 27.5754 14.0302 27.0566 14.1903L27.0028 14.5649C27.6207 14.5876 27.8761 14.2817 28.0064 14.1492C28.1352 14.0161 28.356 13.73 28.5853 13.2385L29.8712 10.6294H29.2314Z" fill="white"/>
<path d="M27.8813 14.7344H25.6535L25.5204 15.1975H26.2911L26.168 15.6267H25.3987L25.2664 16.0871H25.9755L25.4256 16.8831C25.364 16.9568 25.294 16.995 25.2112 16.995H25.0088L24.8821 17.4405H25.5303C25.703 17.4518 25.8311 17.3824 25.9146 17.2337L26.2657 16.7075L26.369 17.2018C26.3782 17.3612 26.4921 17.4355 26.7122 17.4235H27.1368L27.2642 16.9773H27.1439C27.0625 16.9773 27.0144 16.9511 27.0031 16.8973L26.9146 16.3555H26.5275L26.7058 16.0857H27.4956L27.628 15.6239H26.9189L27.0413 15.1954H27.7504V15.1961L27.8813 14.7344Z" fill="white"/>
<path d="M39.0446 0H1.13035C0.561339 0 0.101318 0.461048 0.101318 1.02974V24.8924C0.101318 25.4611 0.561339 25.9228 1.13035 25.9228H39.0446C39.6136 25.9228 40.0736 25.4618 40.0736 24.8931V1.02974C40.0736 0.461048 39.6136 0 39.0446 0ZM32.823 6.65652L29.973 19.2755C29.7875 20.0864 29.002 20.7415 28.1923 20.7826H21.8617C21.0401 20.7691 20.5291 20.097 20.7166 19.2698L20.9381 18.2875H20.4413L20.2198 19.2698C20.0323 20.0977 20.5425 20.7691 21.3649 20.7826H14.6344C13.8135 20.7691 13.3011 20.097 13.4901 19.2698L14.1518 16.3399H13.5714L12.9097 19.2698C12.7215 20.0977 13.2331 20.7691 14.0548 20.7826H8.49069C7.82896 20.7734 7.36894 20.3343 7.31303 19.7309V19.4972C7.31869 19.4242 7.32931 19.3477 7.3463 19.2712L10.197 6.65227C10.3881 5.81657 11.4582 5.13952 12.2933 5.13952L17.8235 5.14093C16.9933 5.15793 15.948 5.82649 15.7604 6.65227L15.2254 9.02337H15.8057L16.3415 6.65297C16.529 5.8279 17.5736 5.15864 18.4038 5.14164C18.4144 5.14023 18.4257 5.14023 18.4363 5.14023L22.7209 5.14235H25.13C25.125 5.14235 25.1201 5.14306 25.1158 5.14306C24.2878 5.16856 23.2581 5.83286 23.0691 6.65227L22.5334 9.02266H23.0302L23.5659 6.65227C23.7542 5.83286 24.7853 5.16856 25.6134 5.14306C25.6176 5.14306 25.6219 5.14235 25.6268 5.14235C25.6268 5.14235 25.6275 5.14235 25.6282 5.14235L31.6545 5.14377C32.4896 5.14377 33.0133 5.82153 32.823 6.65652Z" fill="white"/>
<path d="M19.6111 15.3683L19.7328 14.9229H17.8191L17.6988 15.3683H18.156L18.0392 15.7989H17.5601L17.4391 16.2451H17.9175L17.6953 17.0567C17.6259 17.3109 17.7016 17.4391 17.9246 17.4391H19.0958L19.2091 17.0248H18.599C18.4419 17.0355 18.3853 16.988 18.4285 16.8811L18.6026 16.2465H19.352L19.4738 15.7996H18.725L18.8418 15.3683H19.6111Z" fill="white"/>
<path d="M21.5325 13.8193C21.2048 13.8193 20.8438 14.0906 20.8438 14.0906L20.8729 13.83H20.2324L19.3236 17.1848C19.2805 17.3448 19.3895 17.4234 19.6534 17.4234H20.3399L20.4404 17.0587H20.1701C20.1 17.0587 20.0745 17.0261 20.0929 16.9624L20.4143 15.7839H21.7866C22.0767 15.7839 22.2416 15.689 22.2798 15.4971L22.7434 13.8193H21.5325ZM21.6386 15.257C21.633 15.3328 21.5877 15.3632 21.5077 15.3526H20.531L20.6209 15.0191H21.7037L21.6386 15.257ZM21.8127 14.6217C21.8127 14.6217 21.4702 14.6175 21.1701 14.6217C20.8686 14.626 20.6889 14.7563 20.6889 14.7563L20.8184 14.3038H21.8998L21.8127 14.6217Z" fill="white"/>
<path d="M16.6223 9.8335L16.5098 10.3647H17.115L17.2283 9.8335H16.6223Z" fill="white"/>
<path d="M19.3013 10.7979C19.1449 10.6471 18.9304 10.5713 18.6608 10.5713C18.3317 10.5713 18.05 10.6768 17.8172 10.885C17.5836 11.0932 17.4329 11.3751 17.3607 11.7299C17.3508 11.7802 17.343 11.834 17.3366 11.8893C17.331 11.9438 17.3281 11.9934 17.3281 12.038C17.3295 12.2951 17.4081 12.4976 17.5659 12.6478C17.7223 12.7951 17.9354 12.8702 18.2064 12.8702C18.5334 12.8702 18.8137 12.7682 19.0472 12.5621C19.2808 12.3581 19.4322 12.0791 19.5016 11.7299C19.5115 11.6768 19.52 11.623 19.5271 11.5663C19.5334 11.5111 19.5363 11.4594 19.5363 11.4148C19.5363 11.1542 19.4577 10.9495 19.3013 10.7979ZM18.9538 11.5833C18.9503 11.6216 18.9446 11.6591 18.9375 11.6952C18.8908 11.9261 18.8158 12.1003 18.7096 12.2151C18.6035 12.3305 18.4683 12.3886 18.3013 12.3886C18.1739 12.3886 18.0769 12.3525 18.009 12.2795C17.9396 12.2066 17.9049 12.1032 17.9049 11.9693C17.9049 11.9381 17.9056 11.9049 17.9092 11.868C17.9134 11.8333 17.9191 11.7965 17.9255 11.7604C17.9736 11.5245 18.0493 11.3482 18.1562 11.2306C18.2623 11.1138 18.3975 11.055 18.5638 11.055C18.6898 11.055 18.7868 11.0925 18.8554 11.1669C18.9248 11.2413 18.9587 11.3461 18.9587 11.4799C18.9587 11.5118 18.9566 11.5465 18.9538 11.5833Z" fill="white"/>
<path d="M21.7336 15.913L21.6812 16.0865C21.6812 16.1396 21.6394 16.1658 21.5552 16.1658H21.3896L21.4024 15.896H20.7775L20.7308 17.1368C20.7279 17.35 20.832 17.4491 21.0407 17.4406H21.7902L21.8921 17.0745H21.5807C21.4427 17.0745 21.3762 17.0362 21.3818 16.9626L21.3833 16.5015H21.7159C21.9678 16.4895 22.1235 16.3797 22.1822 16.1672L22.2516 15.913H21.7336Z" fill="white"/>
</svg>
