<svg width="427" height="190" viewBox="0 0 427 190" fill="none" xmlns="http://www.w3.org/2000/svg">
<mask id="path-1-inside-1_245_1788" fill="white">
<path fill-rule="evenodd" clip-rule="evenodd" d="M16.2637 0C11.8454 0 8.26367 3.58172 8.26367 8V28L0 36.2637L8.26367 44.5273V182C8.26367 186.418 11.8454 190 16.2637 190H418.264C422.682 190 426.264 186.418 426.264 182V8C426.264 3.58172 422.682 0 418.264 0H16.2637Z"/>
</mask>
<path fill-rule="evenodd" clip-rule="evenodd" d="M16.2637 0C11.8454 0 8.26367 3.58172 8.26367 8V28L0 36.2637L8.26367 44.5273V182C8.26367 186.418 11.8454 190 16.2637 190H418.264C422.682 190 426.264 186.418 426.264 182V8C426.264 3.58172 422.682 0 418.264 0H16.2637Z" fill="white"/>
<path d="M8.26367 28L8.97078 28.7071L9.26367 28.4142V28H8.26367ZM0 36.2637L-0.707107 35.5566L-1.41421 36.2637L-0.707107 36.9708L0 36.2637ZM8.26367 44.5273H9.26367V44.1131L8.97078 43.8202L8.26367 44.5273ZM9.26367 8C9.26367 4.13401 12.3977 1 16.2637 1V-1C11.2931 -1 7.26367 3.02944 7.26367 8H9.26367ZM9.26367 28V8H7.26367V28H9.26367ZM0.707107 36.9708L8.97078 28.7071L7.55657 27.2929L-0.707107 35.5566L0.707107 36.9708ZM8.97078 43.8202L0.707107 35.5566L-0.707107 36.9708L7.55657 45.2345L8.97078 43.8202ZM9.26367 182V44.5273H7.26367V182H9.26367ZM16.2637 189C12.3977 189 9.26367 185.866 9.26367 182H7.26367C7.26367 186.971 11.2931 191 16.2637 191V189ZM418.264 189H16.2637V191H418.264V189ZM425.264 182C425.264 185.866 422.13 189 418.264 189V191C423.234 191 427.264 186.971 427.264 182H425.264ZM425.264 8V182H427.264V8H425.264ZM418.264 1C422.13 1 425.264 4.13401 425.264 8H427.264C427.264 3.02944 423.234 -1 418.264 -1V1ZM16.2637 1H418.264V-1H16.2637V1Z" fill="#C4C4C4" mask="url(#path-1-inside-1_245_1788)"/>
</svg>
