<svg width="41" height="26" viewBox="0 0 41 26" fill="none" xmlns="http://www.w3.org/2000/svg">
<path d="M39.125 0.0390625H1.21079C0.641784 0.0390625 0.181763 0.50011 0.181763 1.06881V24.9321C0.181763 25.5008 0.641784 25.9619 1.21079 25.9619H39.125C39.694 25.9619 40.1541 25.5008 40.1541 24.9321V1.06881C40.1541 0.50011 39.694 0.0390625 39.125 0.0390625ZM36.5652 18.8627C36.5355 18.9165 36.4951 18.9576 36.4427 18.9867C36.3904 19.0157 36.3352 19.0306 36.2786 19.0306C36.2205 19.0306 36.1653 19.0157 36.1129 18.9867C36.0613 18.9576 36.0202 18.9165 35.9898 18.8627C35.9608 18.811 35.9459 18.7558 35.9459 18.6984C35.9459 18.641 35.9608 18.5865 35.9905 18.5327C36.0195 18.4789 36.062 18.4385 36.1144 18.4095C36.1674 18.3818 36.2212 18.367 36.2778 18.367C36.3338 18.367 36.3875 18.3818 36.4399 18.4095C36.493 18.4385 36.5348 18.4789 36.5638 18.5327C36.5935 18.5865 36.6076 18.6418 36.6076 18.6984C36.6076 18.7551 36.5949 18.8124 36.5652 18.8627ZM37.3069 13.0008C37.3083 18.6701 32.718 23.2678 27.0519 23.2692C24.4022 23.2699 21.9861 22.265 20.1658 20.6141C18.3455 22.2622 15.9343 23.2664 13.2888 23.2664C7.62632 23.2664 3.03035 18.668 3.03035 13.0008C3.03035 7.35634 7.59022 2.77136 13.223 2.73453C13.2449 2.73453 13.2669 2.73453 13.2888 2.73453C15.9343 2.73453 18.3462 3.73878 20.1665 5.3868C21.9861 3.73807 24.3994 2.73311 27.047 2.7324C32.713 2.73028 37.3069 7.32589 37.3083 12.9959C37.3069 12.9973 37.3069 12.998 37.3069 13.0008Z" fill="white"/>
</svg>
