<svg width="2" height="10" viewBox="0 0 2 10" fill="none" xmlns="http://www.w3.org/2000/svg">
<path d="M1.204 6.72H0.336L0.112 0H1.428L1.204 6.72ZM1.302 9.254C1.15267 9.40333 0.975333 9.478 0.77 9.478C0.564667 9.478 0.382667 9.40333 0.224 9.254C0.0746667 9.09534 0 8.91333 0 8.708C0 8.49333 0.0746667 8.31133 0.224 8.162C0.373333 8.01267 0.555333 7.938 0.77 7.938C0.984667 7.938 1.16667 8.01267 1.316 8.162C1.46533 8.31133 1.54 8.49333 1.54 8.708C1.54 8.91333 1.46067 9.09534 1.302 9.254Z" fill="black"/>
</svg>
