<svg width="41" height="28" viewBox="0 0 41 28" fill="none" xmlns="http://www.w3.org/2000/svg">
<path d="M37.6155 0.25H2.63986C1.26332 0.25 0.141602 1.3725 0.141602 2.75V25.25C0.141602 26.63 1.26332 27.75 2.63986 27.75H37.6155C38.9945 27.75 40.1138 26.63 40.1138 25.25V2.75C40.1138 1.3725 38.9945 0.25 37.6155 0.25ZM13.8995 6.295C13.9995 5.6925 14.5191 5.25 15.1312 5.25H20.7123C21.7865 5.25 22.8108 5.7125 23.5228 6.5175C24.2348 7.325 24.5646 8.3975 24.4322 9.465C24.1974 11.3375 22.5985 12.75 20.7123 12.75H17.6294C17.0174 12.75 16.4977 13.1925 16.3978 13.795L15.3235 20.25H11.5761L13.8995 6.295ZM29.3787 13.5825C28.9765 15.9975 26.903 17.75 24.4497 17.75H21.1845L20.1102 24.205C20.0103 24.8075 19.4906 25.25 18.8786 25.25H15.1312C14.7639 25.25 14.4142 25.09 14.1768 24.805C13.9395 24.525 13.8371 24.1525 13.8995 23.79L14.0769 22.75H16.3803C16.9924 22.75 17.512 22.3075 17.6119 21.705L18.6862 15.25H20.7123C23.8551 15.25 26.5182 12.8975 26.908 9.775C26.9629 9.335 26.9704 8.8925 26.9304 8.4575C28.7042 9.4625 29.7335 11.4775 29.3787 13.5825Z" fill="white"/>
</svg>
