<svg width="41" height="26" viewBox="0 0 41 26" fill="none" xmlns="http://www.w3.org/2000/svg">
<path d="M39.1652 0.0390625H1.25107C0.682066 0.0390625 0.222046 0.50011 0.222046 1.06881V24.9321C0.222046 25.5008 0.682066 25.9619 1.25107 25.9619H39.1652C39.7342 25.9619 40.1942 25.5008 40.1942 24.9321V1.06881C40.1942 0.50011 39.7342 0.0390625 39.1652 0.0390625ZM3.31692 7.87263H7.58307C8.15845 7.89459 8.622 8.07801 8.78195 8.69345L9.70977 13.1588C8.79823 10.8231 6.60146 8.87971 3.28153 8.07518L3.31692 7.87263ZM8.47904 18.0568L6.01476 9.63184C7.78618 10.7664 9.29505 12.5667 9.82655 13.8195L10.1139 14.8599L12.8089 7.96966H15.7247L11.3913 18.0546L8.47904 18.0568ZM17.8677 18.0639H15.1161L16.8365 7.95903H19.5896L17.8677 18.0639ZM22.6561 18.2154C21.4226 18.2027 20.2343 17.9583 19.5903 17.6757L19.9774 15.4144L20.332 15.5752C21.2357 15.9527 21.821 16.1056 22.923 16.1056C23.7135 16.1056 24.5606 15.7961 24.5684 15.1191C24.5734 14.6765 24.2138 14.3606 23.1423 13.8648C22.0978 13.3818 20.7149 12.5716 20.7318 11.1205C20.7467 9.15663 22.6632 7.78623 25.383 7.78623C26.4488 7.78623 27.303 8.00578 27.848 8.21045L27.4764 10.401L27.228 10.2841C26.7213 10.0801 26.0695 9.88325 25.1686 9.89742C24.0914 9.89742 23.5918 10.3464 23.5918 10.7664C23.5861 11.2395 24.1749 11.5511 25.1374 12.0199C26.7248 12.7409 27.4587 13.6155 27.4488 14.765C27.4276 16.8613 25.55 18.2154 22.6561 18.2154ZM34.5813 18.0681C34.5813 18.0681 34.33 16.9066 34.2465 16.5539C33.8459 16.5539 31.0377 16.5497 30.7221 16.5497C30.6152 16.8223 30.1438 18.0681 30.1438 18.0681H27.2542L31.3399 8.80818C31.6301 8.15025 32.1219 7.96966 32.7815 7.96966H34.9075L37.1347 18.0674L34.5813 18.0681Z" fill="white"/>
</svg>
